<?xml version="1.0" standalone="no"?>
<!DOCTYPE svg PUBLIC "-//W3C//DTD SVG 20010904//EN"
 "http://www.w3.org/TR/2001/REC-SVG-20010904/DTD/svg10.dtd">
<svg version="1.0" xmlns="http://www.w3.org/2000/svg"
 width="455.000000pt" height="455.000000pt" viewBox="0 0 455.000000 455.000000"
 preserveAspectRatio="xMidYMid meet">
<metadata>
Created by potrace 1.14, written by Peter Selinger 2001-2017
</metadata>
<g transform="translate(0.000000,455.000000) scale(0.100000,-0.100000)"
fill="#000000" stroke="none">
<path d="M2100 4345 c-247 -42 -469 -120 -661 -230 -90 -51 -264 -169 -274
-185 -11 -17 -43 -11 -103 19 -129 64 -355 142 -497 171 -87 18 -232 16 -291
-4 -280 -93 -227 -467 149 -1049 38 -59 72 -105 75 -102 3 3 15 33 28 68 12
34 27 76 34 92 l12 30 28 -35 c15 -19 73 -92 128 -161 166 -208 341 -399 631
-690 254 -254 623 -599 641 -599 4 0 36 31 72 68 108 115 123 213 55 355 -19
40 -61 106 -94 147 -162 204 -259 363 -323 527 -40 104 -99 186 -187 255 -132
106 -201 135 -351 149 -111 10 -176 34 -187 69 -9 29 27 83 95 140 111 92 235
134 374 128 96 -4 171 -31 226 -81 14 -12 88 -79 165 -148 139 -126 223 -210
301 -305 49 -59 118 -98 261 -147 117 -41 159 -62 252 -122 209 -137 355 -361
435 -665 35 -133 45 -197 55 -350 19 -295 -27 -531 -136 -698 -21 -31 -41 -62
-45 -68 -7 -11 181 -140 380 -259 45 -28 81 -54 79 -59 -2 -6 -42 -30 -90 -55
-48 -25 -85 -50 -84 -55 5 -17 296 -159 442 -215 201 -77 341 -105 492 -99
119 4 179 30 230 96 76 101 75 239 -4 462 -46 130 -164 354 -263 500 -16 25
-30 51 -30 58 0 8 15 41 34 75 177 318 268 749 237 1124 -61 731 -488 1360
-1136 1673 -189 92 -345 140 -559 175 -115 19 -488 19 -596 0z m-1505 -399
c125 -37 385 -152 385 -169 0 -4 -34 -47 -76 -95 -96 -110 -224 -300 -282
-419 -25 -51 -48 -93 -52 -93 -10 0 -146 204 -199 299 -87 154 -123 258 -124
357 -1 75 17 108 76 135 54 25 157 20 272 -15z m2894 -275 c36 -19 164 -158
189 -206 20 -39 20 -102 -1 -142 -9 -17 -83 -91 -164 -164 -82 -74 -150 -136
-153 -139 -21 -24 -214 -194 -245 -214 -52 -36 -117 -35 -170 0 -47 31 -164
169 -183 215 -9 22 -11 49 -7 78 6 40 16 55 78 116 104 103 477 434 512 456
38 24 100 24 144 0z m274 -505 c32 -13 159 -144 198 -203 27 -40 25 -118 -4
-164 -32 -53 -489 -460 -540 -482 -69 -30 -116 -12 -201 76 -99 103 -126 149
-126 212 0 78 -11 66 488 510 71 63 123 77 185 51z m143 -702 c31 -15 164
-159 191 -207 19 -34 16 -117 -6 -153 -17 -28 -195 -193 -293 -271 -52 -42
-97 -54 -145 -41 -48 13 -65 27 -142 113 -104 117 -125 186 -78 256 30 44 303
288 342 305 41 18 90 17 131 -2z m142 -1386 c126 -172 247 -410 267 -523 38
-222 -86 -275 -402 -170 -108 36 -454 201 -460 220 -1 6 14 21 35 34 145 94
341 271 452 410 36 44 66 81 67 81 1 0 20 -24 41 -52z"/>
<path d="M482 2903 c-31 -106 -63 -299 -71 -422 -34 -559 137 -1066 501 -1487
87 -102 186 -197 199 -192 6 3 112 105 639 616 l85 83 -55 50 c-571 527 -891
870 -1194 1279 -43 58 -82 106 -85 108 -4 1 -13 -14 -19 -35z"/>
<path d="M2585 540 c-167 -167 -215 -221 -202 -225 28 -11 294 14 415 40 167
35 422 123 422 145 0 4 -53 38 -117 75 -65 38 -158 95 -206 127 -49 32 -89 58
-90 58 -1 0 -101 -99 -222 -220z"/>
</g>
</svg>
